<svg xmlns="http://www.w3.org/2000/svg" width="512" height="512"><path d="M222 7.602c2.737-.001 5.474-.005 8.21-.01 5.699-.005 11.397.002 17.095.017 6.518.016 13.036.01 19.554-.006 5.672-.013 11.343-.015 17.014-.007 3.355.004 6.709.004 10.064-.005 53.096-.11 98.246 14.767 136.875 51.971 31.42 32.753 47.28 75.455 47.602 120.43a4309.615 4309.615 0 0 1 .187 18.2c.04 4.492.091 8.984.141 13.476.096 8.777.18 17.555.258 26.332l1.884.402 2.465.535 2.446.527c6.699 1.628 11.004 5.969 14.978 11.376 3.409 6.002 3.524 11.62 3.518 18.337l.02 3.062c.019 3.333.023 6.666.025 10l.02 6.971c.012 4.87.016 9.74.015 14.61 0 6.227.027 12.453.061 18.68.022 4.8.026 9.6.025 14.4.003 2.296.012 4.591.027 6.886.02 3.217.014 6.432.002 9.649l.034 2.848c-.074 7.826-2.394 13.465-6.645 19.967-6.031 5.769-11.602 7.887-19.875 7.75l.027 3.16c.081 9.856.141 19.713.18 29.57.021 5.067.05 10.133.095 15.2.043 4.895.067 9.79.078 14.686.007 1.862.021 3.723.043 5.585.157 14.084-.791 23.944-10.907 34.596-5.449 4.771-12.417 8.332-19.75 8.323l-2.612.004-2.858-.01h-3.016c-3.295 0-6.59-.009-9.885-.016l-6.848-.005c-6.012-.003-12.024-.013-18.036-.024-6.133-.01-12.267-.015-18.4-.02-12.037-.01-24.074-.028-36.111-.049l-.188 2.813C349 501 349 501 346.9 502.85c-3.592 1.425-6.418 1.538-10.284 1.554l-2.2.02c-2.393.02-4.784.015-7.177.01-1.673.004-3.345.01-5.018.015-3.506.01-7.012.007-10.519-.003-4.47-.011-8.94.009-13.411.038-3.457.018-6.913.018-10.37.012-1.647 0-3.294.006-4.94.019-10.805.07-20.308-.24-28.855-7.64-5.718-6.353-7.858-13.746-7.512-22.203 1.016-7.02 4.432-12.717 9.387-17.672 6.102-4.288 11.234-5.149 18.535-5.193l2.283-.025c2.486-.024 4.973-.041 7.46-.055l2.577-.017c4.5-.026 8.998-.046 13.497-.06 3.722-.013 7.444-.041 11.165-.082 4.498-.05 8.996-.074 13.494-.081 1.713-.007 3.425-.022 5.137-.046 2.397-.032 4.791-.032 7.188-.024l2.136-.05c3.85.048 5.446.568 8.507 2.982C350 457 350 457 350 460c11.405-.038 22.81-.097 34.214-.184 5.296-.04 10.59-.072 15.887-.087 5.11-.015 10.218-.05 15.327-.097 1.95-.015 3.901-.023 5.852-.024 2.73-.002 5.458-.03 8.188-.062l2.45.015c3.406-.063 5.683-.306 8.581-2.16 2.033-3.252 2.02-5.545 2.047-9.373l.031-2.1c.03-2.283.031-4.566.032-6.85a1821.917 1821.917 0 0 0 .129-17.266c.02-4.256.062-8.513.102-12.769.075-8.348.125-16.695.16-25.043l-5.981-.616c-4.576-.87-6.756-4.015-9.332-7.634L426 373l-.848 2.457C419.204 391.887 409.87 404.956 394 413c-10.723 4.505-21.067 6.154-32.613 6.134l-2.841.007c-3.126.006-6.251.005-9.377.004l-6.743.01c-6.095.01-12.19.012-18.286.012l-11.434.006c-12.62.009-25.239.013-37.858.012h-4.12c-11.017 0-22.034.01-33.05.023-11.333.015-22.665.022-33.997.02-6.354 0-12.708.003-19.062.014-5.978.01-11.957.01-17.936.003-2.188-.002-4.376 0-6.564.007-20.79.054-38.498-1.366-55.119-15.252l-2.18-1.8C94.447 394.59 88.98 383.8 86 373l-1.102 1.645-1.523 2.168-1.477 2.144c-3.638 3.916-7.5 5.206-12.735 5.463-1.893.033-3.786.048-5.679.049l-3.063.023c-2.135.01-4.27.013-6.405.009-3.242-.001-6.481.04-9.723.085-2.082.005-4.164.008-6.246.008l-2.902.05c-7.687-.078-14.26-2.151-20.065-7.37-6.523-6.818-7.527-14.643-7.484-23.678l-.02-3.063c-.02-3.322-.015-6.644-.01-9.967l-.015-6.963c-.01-4.858-.007-9.715.003-14.573.011-6.212-.009-12.423-.038-18.634a2859.36 2859.36 0 0 1-.012-14.375c0-2.29-.006-4.579-.019-6.868-.015-3.207-.004-6.413.013-9.62l-.029-2.839c.097-8.683 2.922-15.774 8.832-22.19C21.356 240.03 26.426 238.889 33 238l.011-2.724c.038-8.587.096-17.173.173-25.76.039-4.412.071-8.823.087-13.235.097-25.495.867-50.06 9.729-74.281.43-1.201.859-2.403 1.3-3.64C52.867 95.678 65.907 76.93 82 59l1.82-2.043C89.532 50.915 96.392 46.007 103 41l2.496-1.91C140.24 13.62 179.967 7.49 222 7.602ZM108.402 83.609c-1.317 1.311-2.648 2.61-4.035 3.848-21 19.076-31.919 50.15-35.367 77.543a219.133 219.133 0 0 0-.114 7.588v2.19c0 2.364.008 4.729.016 7.093l.005 4.947c.003 4.322.013 8.644.024 12.966.01 4.418.015 8.835.02 13.253.01 8.654.028 17.309.049 25.963l5.975 1.398c3.084.917 4.824 2.275 7.025 4.602 1.227 2.3 2.1 4.54 3 7h1l.7-3.297C92.98 220.02 92.98 220.02 102 211c.108-1.9.146-3.806.158-5.71l.03-3.702.011-1.992c.012-2.056.031-4.112.053-6.168.062-5.847.116-11.694.15-17.541.02-3.574.056-7.148.1-10.721.014-1.36.023-2.72.026-4.08.005-1.91.03-3.82.055-5.73l.025-3.287c.617-4.83 2.517-8.864 6.392-11.881 4.88-3.558 9.155-3.73 15-3.188 5.273 1.825 7.797 4.607 11 9 1.164 3.492 1.211 6.391 1.316 10.074l.063 2.072c.066 2.18.125 4.361.184 6.542l.13 4.439c.107 3.624.209 7.249.307 10.873l1.706-.61c2.635-.936 5.277-1.85 7.919-2.765l2.68-.96c12.916-4.43 25.967-4.962 39.484-4.924l4.904-.01c4.396-.01 8.793-.006 13.19 0 4.627.005 9.254 0 13.881-.002 7.767-.004 15.534 0 23.3.01 8.947.011 17.894.008 26.84-.003 7.717-.01 15.434-.01 23.15-.006 4.594.004 9.187.004 13.78-.003 4.322-.005 8.642-.001 12.963.01 1.575.003 3.149.002 4.723-.002 13.101-.034 25.758.81 38.168 5.327l2.333.815A810.93 810.93 0 0 1 372 179l3 1 .044-2.75c.061-3.39.136-6.777.218-10.165.034-1.462.062-2.925.084-4.388.034-2.11.087-4.22.142-6.33l.08-3.84c.543-4.434 1.905-7.852 4.932-11.172 5.495-4.278 9.715-4.983 16.5-4.355 5.273 1.825 7.797 4.607 11 9 1.07 3.211 1.118 5.498 1.11 8.873l.002 3.663-.007 3.968c.011 2.77.029 5.54.045 8.31.025 4.37.04 8.738.025 13.107-.012 3.538.006 7.074.042 10.612.013 1.986-.005 3.972-.024 5.958.115 8.595 1.905 13.556 6.807 20.509 5.18 9.767 7.942 20.174 10 31a159.692 159.692 0 0 0 3.813-6c2.983-4.092 5.375-5.671 10.351-6.574L443 239c.07-9.355.123-18.71.155-28.064.016-4.346.037-8.692.071-13.037.033-4.208.05-8.416.059-12.625.005-1.59.016-3.181.032-4.772.33-33.328-11.348-65.377-33.317-90.502l-1.84-2.207c-4.014-4.76-8.339-8.858-13.16-12.793l-2.836-2.344c-25.187-20.375-55.819-29.783-87.982-29.817l-3.449-.015c-3.74-.015-7.48-.022-11.221-.027l-3.905-.009c-6.125-.013-12.25-.023-18.374-.027-7.004-.004-14.008-.022-21.012-.05-6.118-.025-12.237-.033-18.356-.035-2.576-.003-5.151-.01-7.727-.024-43.366-.207-80.423 9.503-111.736 40.957Z" fill="#BBC7CE"/><path d="M214.77 220.621c17.505 10.822 43.184 10.93 62.933 7.758 9.386-2.247 17.845-6.841 26.297-11.379 10.776-5.695 20.952-9.516 33.273-6.09C357.94 218.543 375.027 232.055 385 252c6.786 14.813 8.47 29.269 8.398 45.3a1819.414 1819.414 0 0 1-.007 14.898c-.017 4.271-.007 8.542.01 12.813.012 3.32.008 6.642 0 9.963-.002 1.574 0 3.148.008 4.723.047 13.589-1.448 24.73-11.038 35.057-7.769 7.192-16.59 9.4-26.909 9.38l-2.637.007c-2.922.006-5.843.005-8.765.004l-6.278.01c-5.69.01-11.38.012-17.071.012-4.751.001-9.502.005-14.254.008-11.213.009-22.427.011-33.64.01-11.56 0-23.121.01-34.682.026-9.928.013-19.856.018-29.784.018-5.928 0-11.856.002-17.784.013-5.58.01-11.16.01-16.74.003a1764.8 1764.8 0 0 0-6.13.007c-2.8.008-5.598.003-8.397-.005l-2.427.016c-11.788-.071-20.006-2.853-28.693-10.962-7.031-7.579-9.279-16.364-9.357-26.484l-.02-2.136c-.02-2.326-.031-4.652-.041-6.978l-.013-2.43c-.02-4.253-.035-8.506-.044-12.76-.011-4.347-.045-8.693-.085-13.04-.027-3.38-.035-6.76-.038-10.141a548.15 548.15 0 0 0-.035-4.798c-.275-24.948 7.354-46.556 24.703-64.936 21.843-20.633 45.918-24.973 71.52-8.977Z" fill="#0A365E"/><path d="M127.188 137.063c4.468 3.078 8.08 6.739 9.812 11.937.151 2.283.249 4.569.316 6.855l.063 2.005c.066 2.11.125 4.218.184 6.327l.13 4.295c.107 3.506.209 7.012.307 10.518l3.184-1.242c15.872-6.123 30.017-7.91 47.037-7.903l4.902-.01c4.417-.01 8.835-.012 13.253-.012l8.3-.006c9.67-.009 19.34-.013 29.011-.012 8.984 0 17.967-.01 26.95-.026 7.738-.013 15.476-.018 23.214-.018 4.61 0 9.22-.002 13.831-.013 4.341-.01 8.682-.01 13.024-.003 1.582.002 3.165 0 4.747-.007 13.148-.047 25.835.806 38.297 5.315l2.36.814c5.412 1.884 5.412 1.884 7.89 3.123l.044-2.659c.061-3.276.136-6.552.218-9.829.034-1.414.062-2.828.084-4.242.034-2.041.087-4.081.142-6.122l.08-3.713c.679-5.394 2.722-9.322 6.932-12.748l1.781-1.488c4.164-2.905 8.859-2.642 13.719-2.199 5.442 1.814 8.778 5.383 12 10 1.07 3.211 1.118 5.498 1.11 8.873l.002 3.663-.007 3.968c.011 2.77.029 5.54.045 8.31.025 4.37.04 8.738.025 13.107-.012 3.538.006 7.074.042 10.612.013 1.986-.005 3.972-.024 5.958.115 8.595 1.905 13.556 6.807 20.509 7.32 13.796 10.144 28.478 10.161 43.977l.015 3.285c.015 3.573.022 7.146.027 10.718l.017 7.485c.01 5.227.017 10.455.02 15.683.005 6.676.03 13.353.058 20.029.019 5.153.024 10.307.026 15.46.003 2.46.01 4.92.024 7.381.017 3.453.015 6.905.008 10.358l.028 3.038c-.093 16.02-5.894 30.874-17.068 42.406-14.145 13.31-29.755 18.348-48.929 18.314l-2.841.007c-3.126.006-6.251.005-9.377.004l-6.743.01c-6.095.01-12.19.012-18.286.012l-11.434.006c-12.62.009-25.239.013-37.858.012h-4.12c-11.017 0-22.034.01-33.05.023-11.333.015-22.665.022-33.997.02-6.354 0-12.708.003-19.062.014-5.978.01-11.957.01-17.936.003-2.188-.002-4.376 0-6.564.007-20.79.054-38.498-1.366-55.119-15.252l-2.18-1.8C92.77 393.066 86.354 379.424 85 366c-.15-3.607-.157-7.212-.161-10.822l-.015-3.236a4117.74 4117.74 0 0 1-.027-10.563l-.009-3.665c-.015-6.405-.024-12.81-.028-19.215-.006-6.58-.03-13.159-.058-19.739-.019-5.09-.024-10.18-.026-15.27-.003-2.424-.01-4.847-.024-7.27C84.532 252.307 87.775 232.9 100 212l1-1c.108-1.9.146-3.806.158-5.71l.03-3.702.011-1.992c.012-2.056.031-4.112.053-6.168.062-5.847.116-11.694.15-17.541.02-3.574.056-7.148.1-10.721.014-1.36.023-2.72.026-4.08.005-1.91.03-3.82.055-5.73l.025-3.287c.666-5.21 2.84-9.084 6.892-12.381l1.781-1.489c4.935-3.443 11.44-2.959 16.906-1.137ZM167 214l-3.184 1.508c-18.537 9.389-32.674 24.63-40.191 44.054-3.888 12.463-5.08 23.919-5.023 36.86a1878.442 1878.442 0 0 0 .007 15.128c.017 4.34.007 8.678-.01 13.018-.012 3.371-.008 6.743 0 10.115.002 1.6 0 3.199-.008 4.798-.047 13.612 1.321 24.994 11.073 35.273 8.747 7.968 17.706 9.396 29.228 9.393l2.643.011c2.91.011 5.82.015 8.73.019l6.274.02c6.857.02 13.714.031 20.57.041l7.094.013c11.107.019 22.215.033 33.322.041 12.807.01 25.614.036 38.421.077 9.91.03 19.82.045 29.73.048 5.915.002 11.829.011 17.743.036 5.565.024 11.13.028 16.695.018 2.037 0 4.074.006 6.11.02 13.887.088 26.154-.359 36.776-10.491 7.277-8.12 10.102-16.252 10.161-27.123l.015-2.116c.015-2.303.022-4.606.027-6.91l.009-2.403c.015-4.206.024-8.412.028-12.617.006-4.305.03-8.609.058-12.913.019-3.343.024-6.685.026-10.028.003-1.584.01-3.168.024-4.752.197-25.359-6.89-46.779-24.598-65.54-11.514-10.876-27.28-20.098-43.418-19.864-9.961.794-18.062 5.021-26.515 9.971-5.398 3.142-10.777 5.622-16.817 7.295l-1.807.529c-7.174 1.874-14.316 1.817-21.693 1.784l-2.017-.009c-16.753-.107-30.002-2.145-44.748-10.344-3.841-2.126-7.78-4.055-11.735-5.96l-1.89-.969c-10.087-4.577-21.452-2.622-31.11 1.969Z" fill="#DBE3E9"/><path d="M497.758 246.895c5.618 7.097 6.541 13.439 6.533 22.282l.02 3.062c.019 3.333.023 6.666.025 10l.02 6.971c.012 4.87.016 9.74.015 14.61 0 6.227.027 12.453.061 18.68.022 4.8.026 9.6.025 14.4.003 2.296.012 4.591.027 6.886.02 3.217.014 6.432.002 9.649l.034 2.848c-.074 7.826-2.394 13.465-6.645 19.967-6.031 5.769-11.602 7.887-19.875 7.75l.027 3.16c.081 9.856.141 19.713.18 29.57.021 5.067.05 10.133.095 15.2.043 4.895.067 9.79.078 14.686.007 1.862.021 3.723.043 5.585.157 14.084-.791 23.944-10.907 34.596-5.449 4.771-12.417 8.332-19.75 8.323l-2.612.004-2.858-.01h-3.016c-3.295 0-6.59-.009-9.885-.016l-6.848-.005c-6.012-.003-12.024-.013-18.036-.024-6.133-.01-12.267-.015-18.4-.02-12.037-.01-24.074-.028-36.111-.049l-.188 2.813C349 501 349 501 346.9 502.85c-3.592 1.425-6.418 1.538-10.284 1.554l-2.2.02c-2.393.02-4.784.015-7.177.01-1.673.004-3.345.01-5.018.015-3.506.01-7.012.007-10.519-.003-4.47-.011-8.94.009-13.411.038-3.457.018-6.913.018-10.37.012-1.647 0-3.294.006-4.94.019-10.805.07-20.308-.24-28.855-7.64-5.718-6.353-7.858-13.746-7.512-22.203 1.016-7.02 4.432-12.717 9.387-17.672 6.102-4.288 11.234-5.149 18.535-5.193l2.283-.025c2.486-.024 4.973-.041 7.46-.055l2.577-.017c4.5-.026 8.998-.046 13.497-.06 3.722-.013 7.444-.041 11.165-.082 4.498-.05 8.996-.074 13.494-.081 1.713-.007 3.425-.022 5.137-.046 2.397-.032 4.791-.032 7.188-.024l2.136-.05c3.85.048 5.446.568 8.507 2.982C350 457 350 457 350 460c11.405-.038 22.81-.097 34.214-.184 5.296-.04 10.59-.072 15.887-.087 5.11-.015 10.218-.05 15.327-.097 1.95-.015 3.901-.023 5.852-.024 2.73-.002 5.458-.03 8.188-.062l2.45.015c3.406-.063 5.683-.306 8.581-2.16 2.033-3.252 2.02-5.545 2.047-9.373l.031-2.1c.03-2.283.031-4.566.032-6.85a1821.917 1821.917 0 0 0 .129-17.266c.02-4.256.062-8.513.102-12.769.075-8.348.125-16.695.16-25.043l-3.828-.402c-4.174-.439-6.251-1.434-9.172-4.598-4.317-6.322-4.574-12.226-4.518-19.705l-.02-3.482c-.018-3.782-.007-7.563.007-11.344a8988.98 8988.98 0 0 0-.012-7.912c-.007-5.522.002-11.042.022-16.563.021-6.367.014-12.733-.008-19.1-.02-6.146-.018-12.291-.006-18.437.002-2.606 0-5.212-.01-7.817-.01-3.646.005-7.29.027-10.935l-.024-3.247c.08-7.025 1.037-12.923 6.147-18.077 4.51-3.843 8.958-4.142 14.696-4.158l2.656-.06c1.846-.038 3.692-.063 5.539-.077 2.799-.023 5.595-.084 8.393-.15 1.804-.032 3.608-.061 5.412-.088l2.494-.05c10.15-.052 19.783 1.358 26.963 9.097Z" fill="#BCC6CD"/><path d="M51.033 238.022c1.934.027 3.869.041 5.804.043 2.814.003 5.626.045 8.44.095l2.593-.018c5.507.154 8.965 1.493 13.429 4.696 5.199 6.607 5.14 14.75 5.105 22.797l.02 3.423c.02 3.711.015 7.422.01 11.133.004 2.592.01 5.183.015 7.774.01 5.42.007 10.841-.003 16.262-.011 6.25.003 12.5.03 18.75.024 6.037.027 12.073.02 18.11 0 2.558.006 5.116.019 7.674.015 3.578.004 7.155-.013 10.733l.029 3.186c-.063 6.272-.884 11.106-4.531 16.32-3.972 3.778-7.073 5.105-12.496 5.193l-2.753.049c-4.17.044-8.339.085-12.509.108-2.19.017-4.381.044-6.572.082-3.173.055-6.344.077-9.518.091l-2.93.07c-7.738-.025-14.298-2.064-20.141-7.32-6.525-6.815-7.528-14.643-7.485-23.677l-.02-3.063c-.02-3.322-.015-6.644-.01-9.967l-.015-6.963c-.01-4.858-.007-9.715.003-14.573.011-6.212-.009-12.423-.038-18.634a2859.36 2859.36 0 0 1-.012-14.375c0-2.29-.006-4.579-.019-6.868-.015-3.207-.004-6.413.013-9.62l-.029-2.839c.097-8.683 2.922-15.774 8.832-22.19 9.554-8.456 22.859-6.678 34.732-6.482ZM497.758 246.895c5.618 7.097 6.541 13.439 6.533 22.282l.02 3.062c.019 3.333.023 6.666.025 10l.02 6.971c.012 4.87.016 9.74.015 14.61 0 6.227.027 12.453.061 18.68.022 4.8.026 9.6.025 14.4.003 2.296.012 4.591.027 6.886.02 3.217.014 6.432.002 9.649l.034 2.848c-.074 7.826-2.394 13.465-6.645 19.967-7.002 6.697-14.427 8.51-23.887 8.379l-3.068.007a561.622 561.622 0 0 1-6.37-.04c-3.24-.034-6.477-.02-9.716 0-2.074-.007-4.147-.017-6.22-.03l-2.912.015c-6.086-.106-9.726-1.013-14.702-4.581-5.982-7.084-5.154-15.42-5.177-24.224l-.02-3.363c-.02-3.658-.031-7.315-.041-10.972l-.013-3.795c-.018-5.941-.033-11.883-.041-17.824-.01-6.838-.036-13.674-.077-20.511-.034-5.941-.045-11.882-.05-17.824-.004-2.519-.016-5.038-.034-7.558-.025-3.525-.024-7.05-.017-10.575l-.039-3.138c.05-6.938 1.076-12.751 6.114-17.836 4.511-3.841 8.958-4.141 14.696-4.157l2.656-.06c1.846-.038 3.692-.063 5.539-.077 2.799-.023 5.595-.084 8.393-.15 1.804-.032 3.608-.061 5.412-.088l2.494-.05c10.15-.052 19.783 1.358 26.963 9.097Z" fill="#2372FE"/><path d="m274.535 451.807 2.283-.025c2.486-.024 4.973-.041 7.46-.055l2.577-.017c4.5-.026 8.998-.046 13.497-.06 3.722-.013 7.444-.041 11.165-.082 4.498-.05 8.996-.074 13.494-.081 1.713-.007 3.425-.022 5.137-.046 2.397-.032 4.791-.032 7.188-.024l2.136-.05c3.782.048 5.439.564 8.469 2.897 2.066 2.745 2.684 3.754 2.674 7.096l.028 2.507c-.016.88-.032 1.761-.05 2.668v2.775c-.004 1.93-.022 3.861-.051 5.792a536.498 536.498 0 0 0-.034 8.86c-.01 1.88-.024 3.757-.04 5.636v2.673c-.117 6.068-.117 6.068-1.81 9.254-3.488 3.103-7.375 2.619-11.816 2.652l-2.2.02c-2.402.02-4.805.031-7.208.041l-2.495.013c-4.362.02-8.724.035-13.087.044-4.486.011-8.972.046-13.459.085-3.465.027-6.93.035-10.395.038a593.7 593.7 0 0 0-4.958.035c-10.84.115-20.333-.151-28.915-7.578-5.718-6.353-7.858-13.746-7.512-22.203 1.016-7.02 4.432-12.717 9.387-17.672 6.102-4.288 11.234-5.149 18.535-5.193Z" fill="#0A365E"/><path d="M127.188 137.063c4.468 3.078 8.08 6.739 9.812 11.937 2.865 26.758 2.865 26.758-1.233 34.257-3.574 3.592-8.114 4.973-12.767 6.743-2.862 2.174-2.862 2.174-5.25 4.563C114.185 198 114.185 198 112 198l-.777 1.734c-1.345 2.492-2.908 4.4-4.785 6.516l-1.88 2.14L103 210h-1c-.07-7.85-.123-15.7-.155-23.55-.016-3.645-.037-7.29-.071-10.935-.033-3.521-.05-7.042-.059-10.563-.008-1.99-.031-3.981-.055-5.972v-3.7l-.02-3.243c.617-5.203 2.822-9.065 6.86-12.35l1.781-1.488c4.935-3.443 11.44-2.959 16.906-1.137ZM400.188 137.063c4.468 3.078 8.08 6.739 9.812 11.937.089 1.978.118 3.96.114 5.94v3.7l-.016 3.997-.005 4.09c-.003 3.585-.013 7.17-.024 10.756-.01 3.66-.015 7.32-.02 10.98-.01 7.179-.028 14.358-.049 21.537-2.685-2.665-5.293-5.27-7.625-8.25-4.922-5.774-10.911-11.085-17.763-14.379-3.886-1.873-6.483-3.386-9.612-6.371-1.69-5.455-1.377-10.485-1-16.125.04-1.454.073-2.909.102-4.363.436-13.76.436-13.76 5.617-19.375l1.781-1.45 1.781-1.488c4.935-3.443 11.44-2.959 16.906-1.137Z" fill="#BCC7CE"/><path d="M337.188 274.5c6.484 3.656 10.715 10.51 12.812 17.5 1.158 8.836-.469 16.323-5 24-3.873 4.552-8.267 7.527-14.25 8.285-6.584.392-10.71-1.066-15.75-5.285-5.507-5.354-8.2-12.916-8.5-20.5.304-7.653 3.032-15.032 8.5-20.5 6.943-5.101 14.012-7.069 22.188-3.5ZM192.125 274.938c6.398 3.464 9.196 8.552 12.25 14.937 1.921 9.607.583 17.613-4.375 26.125-3.867 4.554-8.271 7.527-14.25 8.285-6.584.392-10.71-1.066-15.75-5.285-5.641-5.484-8.2-13.14-8.625-20.875.298-7.7 3.185-14.724 8.7-20.176 7.036-5.45 13.824-6.622 22.05-3.012Z" fill="#0FDAFC"/><path d="M239.375 323.813c3.999 1.31 6.143 2.954 9.145 5.812 2.331 2.165 3.478 2.375 6.73 2.625 5.479-.365 8.545-1.89 12.188-6C270 324 270 324 273.563 323.937c3.774 1.167 5.308 1.741 7.437 5.063.718 4.943.664 6.907-1.938 11.188-6.032 6.29-14.74 9.815-23.312 10.187-8.51-.185-15.12-3.24-21.375-8.91-3.136-3.341-3.885-5.894-3.75-10.453.375-2.012.375-2.012 2.438-5.075C236 324 236 324 239.375 323.813Z" fill="#0FD9FB"/></svg>