<svg xmlns="http://www.w3.org/2000/svg" xmlns:xlink="http://www.w3.org/1999/xlink" viewBox="0 0 48 48" width="396" height="396" preserveAspectRatio="xMidYMid meet" style="width: 100%; height: 100%; transform: translate3d(0px, 0px, 0px); content-visibility: visible; background-color: transparent;"><defs><clipPath id="__lottie_element_2"><rect width="48" height="48" x="0" y="0"/></clipPath></defs><g clip-path="url(#__lottie_element_2)"><g transform="matrix(1,0,0,1,-2.937000274658203,1.7410011291503906)" opacity="1" style="display: block;"><g opacity="1" transform="matrix(1,0,0,1,26.93600082397461,22.822999954223633)"><path stroke-linecap="round" stroke-linejoin="round" fill-opacity="0" stroke="rgb(1,126,255)" stroke-opacity="1" stroke-width="3" d=" M11.78499984741211,4.247000217437744 C19.437000274658203,-3.634000062942505 14.810999870300293,-11.208000183105469 9.402000427246094,-13.204000473022461 C3.6579999923706055,-15.324000358581543 0.0010000000474974513,-10.498000144958496 0.0010000000474974513,-10.498000144958496 C0.0010000000474974513,-10.498000144958496 -3.6579999923706055,-15.324000358581543 -9.402000427246094,-13.204000473022461 C-14.810999870300293,-11.208000183105469 -19.437000274658203,-3.634000062942505 -11.78499984741211,4.247000217437744 C-5.693999767303467,10.520999908447266 0.0010000000474974513,15.324000358581543 0.0010000000474974513,15.324000358581543 C0.0010000000474974513,15.324000358581543 1.9670000076293945,13.666000366210938 4.822999954223633,11.024999618530273"/></g></g><g transform="matrix(1,0,0,1,-2.937000274658203,1.7410011291503906)" opacity="1" style="display: block;"><g opacity="1" transform="matrix(1,0,0,1,26.93600082397461,22.822999954223633)"><path stroke-linecap="round" stroke-linejoin="round" fill-opacity="0" stroke="rgb(46,175,188)" stroke-opacity="1" stroke-width="3" d="M0 0"/></g></g><g transform="matrix(1,0,0,1,-2.937000274658203,1.7410011291503906)" opacity="1" style="display: block;"><g opacity="1" transform="matrix(1,0,0,1,26.93600082397461,22.822999954223633)"><path stroke-linecap="round" stroke-linejoin="round" fill-opacity="0" stroke="rgb(46,175,188)" stroke-opacity="1" stroke-width="3" d=" M4.760000228881836,11.083999633789062 C4.781000137329102,11.064000129699707 4.802000045776367,11.045000076293945 4.822999954223633,11.024999618530273"/></g></g><g transform="matrix(1,0,0,1,8.458000183105469,13.046000480651855)" opacity="1" style="display: block;"><g opacity="1" transform="matrix(1,0,0,1,15.809000015258789,12.116000175476074)"><path stroke-linecap="round" stroke-linejoin="round" fill-opacity="0" stroke="rgb(46,175,188)" stroke-opacity="1" stroke-width="3" d=" M-8.309000015258789,0.9459999799728394 C-8.309000015258789,0.9459999799728394 -5.343999862670898,0.9459999799728394 -5.343999862670898,0.9459999799728394 C-5.343999862670898,0.9459999799728394 -3.6070001125335693,-4.616000175476074 -3.6070001125335693,-4.616000175476074 C-3.6070001125335693,-4.616000175476074 0.4519999921321869,4.616000175476074 0.4519999921321869,4.616000175476074 C0.4519999921321869,4.616000175476074 4.070000171661377,-2.6549999713897705 4.070000171661377,-2.6549999713897705 C4.070000171661377,-2.6549999713897705 5.989999771118164,0.9459999799728394 5.989999771118164,0.9459999799728394 C5.989999771118164,0.9459999799728394 8.309000015258789,0.9459999799728394 8.309000015258789,0.9459999799728394"/></g></g></g></svg>