<?xml version="1.0" encoding="UTF-8"?>
<svg version="1.1" xmlns="http://www.w3.org/2000/svg" width="512" height="512">
<path d="M0 0 C1.23947081 -0.00453111 2.47894162 -0.00906223 3.75597215 -0.01373065 C7.18925787 -0.02419316 10.62233393 -0.02570182 14.05562067 -0.02334189 C17.7612778 -0.02293338 21.4669038 -0.03397624 25.17254639 -0.04345703 C32.4302203 -0.06006084 39.68786172 -0.06556631 46.94555303 -0.06668179 C52.846359 -0.06763262 58.74715427 -0.07174466 64.64795685 -0.07808304 C81.3844654 -0.09569426 98.12094831 -0.10492217 114.85746619 -0.10342209 C116.21050669 -0.10330222 116.21050669 -0.10330222 117.59088135 -0.10317993 C118.94557751 -0.10305729 118.94557751 -0.10305729 120.32764128 -0.10293217 C134.96076432 -0.10211945 149.59378439 -0.12125394 164.22687766 -0.14945666 C179.25854819 -0.17819853 194.29016852 -0.19199622 209.32186723 -0.19026911 C217.75838205 -0.18960563 226.19478894 -0.19507954 234.63127899 -0.21662521 C241.81504406 -0.23485423 248.99865227 -0.23917032 256.18243048 -0.22560637 C259.84550285 -0.21908515 263.50827446 -0.21892846 267.17131805 -0.23631287 C271.14820471 -0.25499206 275.12465434 -0.24246673 279.1015625 -0.22705078 C280.25118965 -0.23733791 281.4008168 -0.24762503 282.58528113 -0.25822389 C292.07757955 -0.17702102 300.20534042 1.96290758 307.27349854 8.56430054 C314.29780842 16.37705337 316.10943136 24.22910451 316.03179932 34.49545288 C316.03209137 35.51070038 316.03238342 36.52594788 316.03268433 37.57196045 C316.03129493 40.91584932 316.01575192 44.25951326 316.00006104 47.60336304 C315.99632952 49.92649209 315.9934832 52.24962272 315.9914856 54.57275391 C315.98386006 60.67850105 315.96422073 66.78415261 315.94207764 72.88986206 C315.92159602 79.12377632 315.91247892 85.35770606 315.90240479 91.59164429 C315.88097391 103.81694663 315.8468509 116.04217813 315.80474854 128.26742554 C317.04867371 128.25854309 318.29259888 128.24966064 319.57421875 128.24050903 C331.28697347 128.15948414 342.99967146 128.09948933 354.71264267 128.06017685 C360.73467422 128.03928655 366.75647984 128.01094211 372.77838135 127.96566772 C378.5879565 127.92226214 384.39731411 127.8982993 390.20703888 127.88791656 C392.42547278 127.88051574 394.64389454 127.86606397 396.86223602 127.84450531 C399.96540725 127.81554219 403.06767522 127.81146664 406.17095947 127.81332397 C407.09165222 127.79894287 408.01234497 127.78456177 408.9609375 127.76974487 C415.1421346 127.80987679 415.1421346 127.80987679 418.37451172 130.04190063 C419.89365401 132.4057672 420.30951836 133.55425411 420.32232666 136.32992554 C420.3349353 137.11754272 420.34754395 137.90515991 420.36053467 138.71664429 C420.34838928 139.97928101 420.34838928 139.97928101 420.33599854 141.26742554 C420.33982544 142.14012085 420.34365234 143.01281616 420.34759521 143.91195679 C420.35031344 145.75441646 420.34295848 147.59691478 420.32623291 149.43930054 C420.30482101 152.25788487 420.32603655 155.07392038 420.35162354 157.89242554 C420.34898024 159.68409782 420.34385523 161.47576853 420.33599854 163.26742554 C420.34409546 164.10918335 420.35219238 164.95094116 420.36053467 165.81820679 C420.30130354 169.51816547 420.19908744 171.65598924 418.16217041 174.81430054 C415.10431578 176.6991753 413.12083786 176.6724729 409.55474854 176.51742554 C408.47709229 176.48133179 407.39943604 176.44523804 406.28912354 176.40805054 C405.46927979 176.36164429 404.64943604 176.31523804 403.80474854 176.26742554 C402.93748881 189.02296465 402.72383013 199.83020696 411.30474854 209.95492554 C412.49265995 211.28036744 413.69066902 212.59682733 414.89849854 213.90414429 C416.20621227 215.35351102 417.50732859 216.80883696 418.80474854 218.26742554 C419.94922219 219.50573797 419.94922219 219.50573797 421.11681652 220.76906681 C429.37629346 230.91890351 429.05803085 240.44451013 428.88995361 253.1187439 C428.89396944 255.30795298 428.90189428 257.49715783 428.91340637 259.68634033 C428.93297933 265.59753042 428.89674794 271.50716399 428.84902024 277.41814494 C428.8074649 283.61458786 428.81408986 289.81099703 428.81443787 296.0075531 C428.80794954 306.40344302 428.76704642 316.79873806 428.70343018 327.19442749 C428.63823839 337.88076118 428.6024904 348.56650056 428.60089111 359.25302124 C428.59873227 373.39206154 428.56976514 387.53081793 428.52226806 401.6697762 C428.5117803 405.3570892 428.50672194 409.04437753 428.50275612 412.7317028 C428.49484749 418.52103238 428.4663296 424.30991123 428.42181969 430.0990715 C428.40853886 432.22349342 428.40200533 434.34796977 428.4026947 436.47243309 C428.40241834 439.37123867 428.37755914 442.26882095 428.34632874 445.16743469 C428.35184102 446.00877156 428.35735331 446.85010842 428.36303264 447.71694034 C428.27125908 453.01866309 427.41529738 456.13237181 423.80474854 460.26742554 C419.21989766 463.91881346 416.20575263 464.76787606 410.37892532 464.7707901 C409.64899754 464.77660386 408.91906975 464.78241763 408.16702294 464.78840756 C405.71969542 464.80301231 403.27337011 464.78912072 400.8260498 464.77536011 C399.05432903 464.77996888 397.28261207 464.78632163 395.51090312 464.79426908 C390.64098473 464.81098948 385.77137931 464.80270363 380.90145969 464.79032421 C375.64976935 464.78128688 370.39813344 464.79523709 365.14645386 464.8062439 C354.85675069 464.82404925 344.56716409 464.82017971 334.27745631 464.80859333 C325.91383025 464.79956526 317.5502369 464.79833231 309.18660736 464.8026886 C307.9969022 464.80330153 306.80719703 464.80391446 305.5814402 464.80454597 C303.1646367 464.80582486 300.74783322 464.80712171 298.33102974 464.80843633 C275.65632038 464.81984855 252.98167565 464.80671938 230.30697688 464.78523487 C210.85307669 464.76737253 191.39927199 464.77045966 171.94537354 464.78890991 C149.35882709 464.81032115 126.77233737 464.81874015 104.18578219 464.80646086 C101.7765724 464.80518666 99.36736259 464.80392918 96.95815277 464.8026886 C95.18006722 464.80176295 95.18006722 464.80176295 93.36606075 464.80081859 C85.01499477 464.79736577 76.66396477 464.80319278 68.31290436 464.81260681 C58.13178139 464.82383137 47.95078176 464.82077743 37.7696729 464.79948384 C32.57553987 464.78897825 27.3816124 464.78484322 22.18748093 464.79808044 C17.43023276 464.81002072 12.67338022 464.80341463 7.91616783 464.78217024 C6.19747665 464.77771101 4.47875188 464.77995514 2.76008239 464.78967339 C-8.73975952 464.84969845 -18.84326991 464.20878095 -27.66400146 455.97055054 C-33.72408749 449.23025078 -36.44234161 442.13476059 -36.45252037 433.06024551 C-36.45602645 432.35395496 -36.45953252 431.64766441 -36.46314484 430.91997111 C-36.47244865 428.5533089 -36.4675382 426.18689332 -36.462677 423.82022095 C-36.46641378 422.10625055 -36.47101541 420.39228186 -36.47640765 418.67831588 C-36.48864971 413.96810388 -36.48837575 409.25796284 -36.4860189 404.54773855 C-36.48561103 399.46783953 -36.49664698 394.38796335 -36.50613403 389.30807495 C-36.52275176 379.355294 -36.52824393 369.40253673 -36.52935879 359.44974306 C-36.53030892 351.35976943 -36.53441748 343.26980362 -36.54076004 335.17983246 C-36.55837477 312.24552219 -36.56759858 289.31123065 -36.56609909 266.37691358 C-36.56601918 265.14034307 -36.56593927 263.90377256 -36.56585693 262.62973022 C-36.56577517 261.39165059 -36.56569341 260.15357096 -36.56560917 258.87797377 C-36.56479627 238.81298049 -36.5839345 218.74806228 -36.61213367 198.68309072 C-36.64085692 178.08272106 -36.65467426 157.48238802 -36.65294611 136.88199782 C-36.65228201 125.31557912 -36.65778338 113.74923911 -36.67930222 102.18283844 C-36.69750665 92.33476635 -36.70186739 82.48680861 -36.68828337 72.63872698 C-36.68174996 67.61470529 -36.68165007 62.59090303 -36.69898987 57.56690216 C-36.71470904 52.96509888 -36.71186868 48.36368924 -36.6944216 43.76189563 C-36.69134917 42.09972595 -36.69499328 40.43752698 -36.70614175 38.77539185 C-36.77718249 27.42982248 -36.01681629 17.49114646 -27.89837646 8.79867554 C-19.43802224 1.19211852 -11.05138856 -0.02954417 0 0 Z " fill="#E5E6E7" transform="translate(60.19525146484375,23.732574462890625)"/>
<path d="M0 0 C0.81407678 -0.00709439 1.62815356 -0.01418877 2.46689934 -0.02149814 C5.19260191 -0.03908947 7.91688063 -0.02096823 10.64256287 -0.00291443 C12.59738311 -0.00805278 14.55219873 -0.01533342 16.50700378 -0.02459717 C21.81483238 -0.04312878 27.12215938 -0.03016182 32.42996716 -0.01050687 C37.98146489 0.00586399 43.53293045 -0.00293098 49.08444214 -0.00802612 C58.40646897 -0.01254844 67.72829523 0.00333237 77.05027771 0.03126526 C87.83346518 0.06332709 98.61629107 0.06329819 109.39950424 0.04605049 C119.76698191 0.03019748 130.13432679 0.03691048 140.50179863 0.0539875 C144.91681889 0.06086673 149.33173299 0.05981663 153.74675179 0.05244255 C158.94332325 0.04479223 164.13948221 0.05686496 169.33598328 0.08429146 C171.2451753 0.09118917 173.15440575 0.09125848 175.06359673 0.08407593 C177.66574522 0.07541304 180.26661132 0.09128271 182.86865234 0.11352539 C183.62788909 0.10528462 184.38712584 0.09704386 185.16936976 0.08855337 C188.66913749 0.14394035 190.53224809 0.36635085 193.33922482 2.53706455 C195.02479257 4.83839006 195.37542555 5.87630808 195.38841248 8.69068909 C195.40102112 9.47830627 195.41362976 10.26592346 195.42662048 11.07740784 C195.41852356 11.91916565 195.41042664 12.76092346 195.40208435 13.62818909 C195.40591125 14.5008844 195.40973816 15.37357971 195.41368103 16.27272034 C195.41639925 18.11518001 195.40904429 19.95767833 195.39231873 21.80006409 C195.37090683 24.61864842 195.39212236 27.43468393 195.41770935 30.25318909 C195.41506606 32.04486137 195.40994104 33.83653208 195.40208435 35.62818909 C195.41018127 36.4699469 195.4182782 37.31170471 195.42662048 38.17897034 C195.36738935 41.87892902 195.26517325 44.01675279 193.22825623 47.17506409 C190.1704016 49.05993885 188.18692368 49.03323645 184.62083435 48.87818909 C183.5431781 48.84209534 182.46552185 48.80600159 181.35520935 48.76881409 C180.5353656 48.72240784 179.71552185 48.67600159 178.87083435 48.62818909 C178.00357462 61.3837282 177.78991594 72.19097051 186.37083435 82.31568909 C187.55874576 83.64113099 188.75675484 84.95759088 189.96458435 86.26490784 C191.27229808 87.71427457 192.5734144 89.16960051 193.87083435 90.62818909 C195.015308 91.86650152 195.015308 91.86650152 196.18290234 93.12983036 C204.44237927 103.27966706 204.12411666 112.80527368 203.95603943 125.47950745 C203.96005525 127.66871653 203.9679801 129.85792138 203.97949219 132.04710388 C203.99906515 137.95829397 203.96283375 143.86792754 203.91510606 149.77890849 C203.87355071 155.97535141 203.88017568 162.17176058 203.88052368 168.36831665 C203.87403536 178.76420657 203.83313223 189.15950161 203.76951599 199.55519104 C203.7043242 210.24152473 203.66857622 220.92726411 203.66697693 231.61378479 C203.66481809 245.75282509 203.63585095 259.89158148 203.58835387 274.03053975 C203.57786611 277.71785275 203.57280776 281.40514108 203.56884193 285.09246635 C203.5609333 290.88179593 203.53241542 296.67067478 203.4879055 302.45983505 C203.47462467 304.58425697 203.46809114 306.70873332 203.46878052 308.83319664 C203.46850416 311.73200222 203.44364495 314.6295845 203.41241455 317.52819824 C203.41792684 318.36953511 203.42343913 319.21087197 203.42911845 320.07770389 C203.33734489 325.37942664 202.48138319 328.49313536 198.87083435 332.62818909 C194.25246431 336.59846118 190.38553881 337.20467505 184.48301697 337.13612366 C183.23823554 337.1454836 183.23823554 337.1454836 181.96830702 337.15503263 C179.19529036 337.17095223 176.42315398 337.15836258 173.65013123 337.14576721 C171.65900155 337.15118879 169.66787588 337.15831165 167.67675781 337.16700745 C162.2738899 337.18523938 156.8713276 337.1781737 151.46845436 337.1654911 C145.81379499 337.15536284 140.15916175 337.16475631 134.50450134 337.17103577 C125.00856326 337.17831266 115.51274963 337.16872331 106.01683044 337.14967346 C95.03883564 337.12790471 84.06113799 337.13495605 73.08315039 337.15697908 C63.65708545 337.17513183 54.23110997 337.177692 44.80503321 337.16722441 C39.17550441 337.16098882 33.54611528 337.16015574 27.91659546 337.17337036 C22.62399322 337.18492632 17.33177404 337.1769075 12.03921318 337.15379333 C10.0969907 337.14850493 8.15473597 337.15002227 6.21252632 337.15884399 C3.56079981 337.16977783 0.91030011 337.15606232 -1.74134827 337.13612366 C-2.89378737 337.14950799 -2.89378737 337.14950799 -4.06950808 337.16316271 C-9.2361902 337.08782659 -12.13937557 335.86901427 -16.12916565 332.62818909 C-20.99956519 327.23125986 -21.27788366 323.03719445 -21.27633667 316.0004425 C-21.28001336 315.10852022 -21.28369005 314.21659794 -21.28747815 313.29764771 C-21.29852693 310.2968198 -21.30236085 307.2960265 -21.3061676 304.29518127 C-21.31243131 302.14848724 -21.31907803 300.00179429 -21.32608032 297.85510254 C-21.3434977 292.01409114 -21.35404396 286.17308793 -21.36228585 280.332057 C-21.36743411 276.68412572 -21.3735099 273.036197 -21.37979698 269.38826752 C-21.39885053 257.97858761 -21.41308171 246.56891418 -21.42140895 235.15922141 C-21.43118503 221.98138754 -21.45751366 208.80372148 -21.49790984 195.62594676 C-21.5280503 185.44496795 -21.54287584 175.2640373 -21.54618996 165.08301473 C-21.54854266 159.00010441 -21.55753194 152.91737333 -21.58265114 146.8345108 C-21.60590071 141.11191258 -21.61017749 135.38961201 -21.59988976 129.66697884 C-21.59939354 127.56713179 -21.60573908 125.46727025 -21.6194458 123.36746788 C-21.63712027 120.49924439 -21.63008023 117.63209427 -21.61691284 114.76387024 C-21.62788209 113.93418881 -21.63885133 113.10450738 -21.65015298 112.2496841 C-21.56300475 104.37922136 -18.09074077 99.6495397 -13.3440094 93.49147034 C-12.64856018 92.58461487 -11.95311096 91.6777594 -11.23658752 90.74342346 C-10.52051331 89.81852112 -9.80443909 88.89361877 -9.06666565 87.94068909 C-7.63827009 86.08262396 -6.2098843 84.22455134 -4.7815094 82.36647034 C-3.8377948 81.14504333 -3.8377948 81.14504333 -2.87501526 79.89894104 C-2.29888489 79.1495929 -1.72275452 78.40024475 -1.12916565 77.62818909 C-0.56939026 76.99131165 -0.00961487 76.3544342 0.56712341 75.69825745 C2.28675641 72.96777651 2.30061452 70.98080658 2.3825531 67.76881409 C2.41800232 66.65377502 2.45345154 65.53873596 2.48997498 64.38990784 C2.51253357 63.23104065 2.53509216 62.07217346 2.55833435 60.87818909 C2.59249451 59.70385315 2.62665466 58.52951721 2.66184998 57.31959534 C2.74428608 54.42255519 2.81345246 51.52581611 2.87083435 48.62818909 C1.74934998 48.68039612 1.74934998 48.68039612 0.60520935 48.73365784 C-0.3796344 48.76072815 -1.36447815 48.78779846 -2.37916565 48.81568909 C-3.3536969 48.85049377 -4.32822815 48.88529846 -5.33229065 48.92115784 C-8.55693483 48.58338086 -9.83707362 47.88348148 -12.12916565 45.62818909 C-14.08738519 39.75353045 -13.43622851 33.03286738 -13.47926331 26.86842346 C-13.49583207 25.12837864 -13.52313454 23.38840214 -13.56129456 21.6486969 C-13.61613446 19.13369122 -13.63794425 16.62027501 -13.65260315 14.10475159 C-13.68660721 12.94358322 -13.68660721 12.94358322 -13.72129822 11.75895691 C-13.70665591 8.004886 -13.37293119 5.95332904 -11.10077 2.92266941 C-7.37112269 0.04287743 -4.52559844 -0.07075737 0 0 Z " fill="#5AAAE6" transform="translate(285.12916564941406,151.37181091308594)"/>
<path d="M0 0 C1.14681747 -0.00571014 2.29363495 -0.01142029 3.47520447 -0.01730347 C5.371856 -0.01898026 5.371856 -0.01898026 7.30682373 -0.02069092 C8.64712155 -0.02531847 9.98741805 -0.03034305 11.32771301 -0.03573608 C14.97457485 -0.04887034 18.62141826 -0.05530733 22.26830006 -0.05974674 C24.5468273 -0.06267653 26.8253495 -0.06678121 29.10387421 -0.07125092 C36.23299265 -0.08493012 43.36209958 -0.09459403 50.49123025 -0.09845281 C58.72009632 -0.10293121 66.94879609 -0.12046713 75.17761159 -0.1494534 C81.53778144 -0.1710791 87.89790454 -0.1811576 94.25811076 -0.18249393 C98.05671372 -0.18354156 101.85516044 -0.18943999 105.65372467 -0.20731354 C109.22915235 -0.22380912 112.80430663 -0.22594267 116.37975883 -0.21717453 C118.31329716 -0.21603863 120.24682646 -0.22974557 122.18031311 -0.243927 C128.8813934 -0.21170229 134.09968252 -0.12597004 139.24334717 4.67559814 C142.78482263 9.30675837 143.72383391 11.34880492 143.73925781 17.14904785 C143.74496796 18.43049179 143.7506781 19.71193573 143.75656128 21.0322113 C143.75780671 22.46054067 143.75893179 23.88887015 143.75994873 25.31719971 C143.76457594 26.81513085 143.76960047 28.3130608 143.7749939 29.81098938 C143.78813103 33.88758963 143.79456565 37.9641734 143.79900455 42.04079151 C143.80193375 44.58733404 143.80603831 47.13387204 143.81050873 49.68041229 C143.8241884 57.64674237 143.83385221 65.61306215 143.83771062 73.57940316 C143.84218978 82.7772303 143.85972908 91.97490871 143.88871121 101.17269063 C143.9103297 108.28020001 143.92041502 115.38766755 143.92175174 122.49520946 C143.92279984 126.74093637 143.92870845 130.98652357 143.94657135 135.23221588 C143.96305449 139.22787209 143.96520643 143.22328362 143.95643234 147.21896172 C143.95566204 148.68387698 143.96000386 150.14880541 143.96989059 151.61368752 C143.98261626 153.61705207 143.97493934 155.62051498 143.96630859 157.62390137 C143.96777515 158.74404758 143.96924171 159.8641938 143.97075272 161.01828384 C143.46582303 165.25682733 141.9853515 168.62030783 139.09881592 171.78497314 C134.59258536 175.29373079 131.70866873 176.26354112 126.07737732 176.28761292 C124.35508911 176.29834587 124.35508911 176.29834587 122.5980072 176.30929565 C121.33716812 176.31198456 120.07632904 176.31467346 118.77728271 176.31744385 C117.436837 176.32370992 116.09639301 176.33035685 114.75595093 176.33735657 C110.35332444 176.35838067 105.95069767 176.36875678 101.54803467 176.37872314 C100.03164972 176.38277119 98.51526496 176.38688813 96.99888039 176.39107323 C89.87510789 176.41012056 82.75134574 176.42435306 75.62755269 176.4326852 C67.40713767 176.44245906 59.18699182 176.46878417 50.96667165 176.50918609 C44.61072903 176.53935189 38.25486355 176.55415446 31.89885074 176.55746621 C28.10355961 176.55981601 24.30855618 176.56876709 20.5133419 176.59392738 C16.94194762 176.61722184 13.37103021 176.62143619 9.79957962 176.611166 C7.86841498 176.61043526 5.93727448 176.62951649 4.00621033 176.64923096 C-2.41105837 176.61070567 -6.57916077 176.5712408 -11.40118408 172.14044189 C-15.64098975 167.44227886 -16.52448721 164.25415718 -16.5483551 158.01158142 C-16.55551041 156.72876282 -16.56266571 155.44594421 -16.57003784 154.12425232 C-16.57287807 152.69955469 -16.5755898 151.27485679 -16.57818604 149.85015869 C-16.58445144 148.3520797 -16.59109831 146.85400225 -16.59809875 145.35592651 C-16.61913044 140.43384888 -16.62949952 135.51177097 -16.63946533 130.58966064 C-16.64351306 128.89497168 -16.64762999 127.20028288 -16.65181541 125.50559425 C-16.67086422 117.54460979 -16.68509655 109.5836346 -16.69342738 101.62263173 C-16.70320253 92.43326083 -16.72953048 83.24413063 -16.76992828 74.05484456 C-16.80008412 66.95156229 -16.8148957 59.84834904 -16.8182084 52.745004 C-16.82055929 48.50259491 -16.82952473 44.26044307 -16.85466957 40.01810265 C-16.87794649 36.02648585 -16.88218526 32.03529576 -16.87190819 28.04362869 C-16.87141264 26.58031737 -16.87773888 25.11698506 -16.89146423 23.65373802 C-16.90918129 21.6526547 -16.89969232 19.65138612 -16.88893127 17.6502533 C-16.89131963 16.5314059 -16.89370798 15.4125585 -16.89616871 14.25980663 C-16.09815837 9.23079125 -13.52924589 6.13421063 -9.77618408 2.82794189 C-6.20336786 0.28936195 -4.35338166 0.01294145 0 0 Z " fill="#E5E6E7" transform="translate(312.40118408203125,271.85955810546875)"/>
<path d="M0 0 C0.33 0 0.66 0 1 0 C1.00146656 0.87483567 1.00293312 1.74967134 1.00444412 2.65101719 C1.0415031 23.94217729 1.10050583 45.23317808 1.18390274 66.52420902 C1.22370436 76.82042259 1.25609117 87.1165596 1.27099609 97.4128418 C1.28400677 106.38756399 1.31095655 115.36211782 1.35461307 124.3367452 C1.37724097 129.0883421 1.39290988 133.83973123 1.39188385 138.5913868 C1.39113803 143.06565047 1.40905757 147.53945462 1.44116783 152.0135994 C1.44967243 153.65383369 1.45141294 155.29411948 1.44580269 156.93436623 C1.43914931 159.17891084 1.4571127 161.42199906 1.48101807 163.66639709 C1.48470524 164.92095735 1.48839241 166.1755176 1.49219131 167.46809483 C2.16692834 172.16101811 3.77139851 176.1970833 7.58879304 179.28531796 C9.03245065 180.23229676 10.51358195 181.12166206 12 182 C12 182.33 12 182.66 12 183 C-52.02 183 -116.04 183 -182 183 C-175.25 175.125 -175.25 175.125 -172.24136353 172.12110901 C-171.55998322 171.43835403 -170.87860291 170.75559906 -170.17657471 170.05215454 C-169.45008728 169.32926239 -168.72359985 168.60637024 -167.97509766 167.86157227 C-167.19393585 167.08026443 -166.41277405 166.2989566 -165.60794067 165.49397278 C-163.04567983 162.9324042 -160.47990363 160.37438812 -157.9140625 157.81640625 C-156.12879956 156.03300993 -154.34375842 154.24939154 -152.55892944 152.46556091 C-148.35355877 148.26360797 -144.14596893 144.06388593 -139.93727815 139.86525911 C-135.14201069 135.08120723 -130.34961586 130.29428207 -125.55744863 125.50712502 C-115.70813696 115.66823821 -105.85526086 105.83292745 -96 96 C-98.31 95.67 -100.62 95.34 -103 95 C-103 89.72 -103 84.44 -103 79 C-101.35773438 79.09023438 -99.71546875 79.18046875 -98.0234375 79.2734375 C-83.56453407 79.87586985 -83.56453407 79.87586985 -71.37133789 73.11157227 C-68.77490276 70.19259046 -66.40994201 67.0747536 -64 64 C-83.305 63.505 -83.305 63.505 -103 63 C-103 57.72 -103 52.44 -103 47 C-101.51419434 47.21060059 -100.02838867 47.42120117 -98.49755859 47.63818359 C-67.37173548 51.84628788 -67.37173548 51.84628788 -38.80175781 41.43798828 C-24.56292496 30.31503469 -12.63151436 15.85496089 -1.48303223 1.73960876 C-0.99363159 1.16553787 -0.50423096 0.59146698 0 0 Z " fill="#D7D6DA" transform="translate(263,305)"/>
<path d="M0 0 C10.56 0 21.12 0 32 0 C32 15.84 32 31.68 32 48 C34.64 48 37.28 48 40 48 C40 55.92 40 63.84 40 72 C41.81886719 71.96519531 43.63773438 71.93039063 45.51171875 71.89453125 C47.9036366 71.86639104 50.29556443 71.83909113 52.6875 71.8125 C53.88568359 71.78736328 55.08386719 71.76222656 56.31835938 71.73632812 C57.47529297 71.72666016 58.63222656 71.71699219 59.82421875 71.70703125 C60.88729248 71.6913208 61.95036621 71.67561035 63.0456543 71.65942383 C66.42477331 72.04896775 68.27990964 72.99204546 71 75 C72.13335166 77.26670332 72.12343812 78.48388875 72.12025452 80.99893188 C72.12231651 82.25255775 72.12231651 82.25255775 72.12442017 83.5315094 C72.11902725 84.90930824 72.11902725 84.90930824 72.11352539 86.31494141 C72.11367142 87.28083694 72.11381744 88.24673248 72.1139679 89.24189758 C72.11326937 92.44514181 72.10547978 95.64832839 72.09765625 98.8515625 C72.09579186 101.06830819 72.09436805 103.28505429 72.09336853 105.50180054 C72.08954504 111.34453463 72.07971617 117.18724397 72.06866455 123.02996826 C72.05844682 128.98872544 72.05387013 134.9474866 72.04882812 140.90625 C72.03809377 152.60417756 72.02101935 164.30208672 72 176 C66.72 176 61.44 176 56 176 C56 146.96 56 117.92 56 88 C50.72 88 45.44 88 40 88 C40.01382689 89.09070612 40.02765379 90.18141224 40.04189968 91.30517006 C40.37650684 117.97814903 40.62214208 144.65085248 40.77718258 171.32549477 C40.85417374 184.2258984 40.95892728 197.12490678 41.1315918 210.02441406 C41.28220561 221.28201789 41.37813042 232.53861035 41.41132742 243.79719388 C41.4307012 249.74626608 41.4754465 255.69244788 41.58595085 261.64058304 C42.06966536 288.69878753 41.17723655 309.0092183 26.52161407 332.17861938 C22.93050316 338.83726621 23.11899077 346.01827943 23.5625 353.375 C23.58975209 354.82800961 23.6098979 356.28116934 23.62304688 357.734375 C23.65616826 361.1712061 23.82762594 364.55688262 24 368 C18.72 368 13.44 368 8 368 C8.10183594 365.96585937 8.20367187 363.93171875 8.30859375 361.8359375 C8.35672373 359.73997722 8.37775968 357.64523549 8.39672852 355.54882812 C8.42291713 354.15252008 8.47479747 352.75632736 8.55883789 351.36230469 C9.03087947 343.17223297 8.25675206 336.46476321 3.60583496 329.52587891 C-12.0660659 305.66548428 -9.98925362 279.73796429 -9.55306818 252.15321757 C-9.44394643 245.05870842 -9.42314952 237.96464666 -9.40613098 230.86941759 C-9.37355785 218.22370957 -9.2744487 205.57947917 -9.1315918 192.93457031 C-8.99323003 180.67455268 -8.8873902 168.41494095 -8.82397461 156.15429688 C-8.82003376 155.39452072 -8.8160929 154.63474456 -8.81203263 153.85194488 C-8.79245256 150.03916009 -8.77349802 146.22637251 -8.75485408 142.41358304 C-8.60015504 110.94131528 -8.33553827 79.47088514 -8 48 C-5.36 48 -2.72 48 0 48 C0 32.16 0 16.32 0 0 Z " fill="#3D9AE2" transform="translate(80,72)"/>
<path d="M0 0 C0.81407678 -0.00709439 1.62815356 -0.01418877 2.46689934 -0.02149814 C5.19260191 -0.03908947 7.91688063 -0.02096823 10.64256287 -0.00291443 C12.59738311 -0.00805278 14.55219873 -0.01533342 16.50700378 -0.02459717 C21.81483238 -0.04312878 27.12215938 -0.03016182 32.42996716 -0.01050687 C37.98146489 0.00586399 43.53293045 -0.00293098 49.08444214 -0.00802612 C58.40646897 -0.01254844 67.72829523 0.00333237 77.05027771 0.03126526 C87.83346518 0.06332709 98.61629107 0.06329819 109.39950424 0.04605049 C119.76698191 0.03019748 130.13432679 0.03691048 140.50179863 0.0539875 C144.91681889 0.06086673 149.33173299 0.05981663 153.74675179 0.05244255 C158.94332325 0.04479223 164.13948221 0.05686496 169.33598328 0.08429146 C171.2451753 0.09118917 173.15440575 0.09125848 175.06359673 0.08407593 C177.66574522 0.07541304 180.26661132 0.09128271 182.86865234 0.11352539 C183.62788909 0.10528462 184.38712584 0.09704386 185.16936976 0.08855337 C188.66913749 0.14394035 190.53224809 0.36635085 193.33922482 2.53706455 C195.02479257 4.83839006 195.37542555 5.87630808 195.38841248 8.69068909 C195.40102112 9.47830627 195.41362976 10.26592346 195.42662048 11.07740784 C195.41852356 11.91916565 195.41042664 12.76092346 195.40208435 13.62818909 C195.40591125 14.5008844 195.40973816 15.37357971 195.41368103 16.27272034 C195.41639925 18.11518001 195.40904429 19.95767833 195.39231873 21.80006409 C195.37090683 24.61864842 195.39212236 27.43468393 195.41770935 30.25318909 C195.41506606 32.04486137 195.40994104 33.83653208 195.40208435 35.62818909 C195.41018127 36.4699469 195.4182782 37.31170471 195.42662048 38.17897034 C195.40770752 39.36039612 195.40770752 39.36039612 195.38841248 40.56568909 C195.3852301 41.25533752 195.38204773 41.94498596 195.37876892 42.65553284 C194.60515849 45.6599896 193.3214281 46.73423409 190.87083435 48.62818909 C188.06937879 49.0189322 185.66179466 49.16478355 182.86192322 49.12939453 C181.64208968 49.13769613 181.64208968 49.13769613 180.39761305 49.14616543 C177.66897616 49.15979333 174.94125057 49.14479141 172.21263123 49.12989807 C170.25796113 49.13368047 168.30329371 49.13917986 166.34863281 49.14627075 C161.03667344 49.16025288 155.72503697 49.14903617 150.41309547 49.13255954 C144.85892598 49.11872772 139.30477559 49.12516698 133.75059509 49.12869263 C124.42262049 49.13139623 115.09477446 49.11790623 105.76683044 49.09474182 C94.97632684 49.06813119 84.18603823 49.06638445 73.39551306 49.07813019 C63.0232502 49.08890252 52.65106526 49.08272516 42.27880859 49.06857491 C37.86101443 49.06281039 33.44327719 49.06290145 29.02548218 49.0676403 C23.82488743 49.07240617 18.62452865 49.06232453 13.42397881 49.04068565 C11.51317071 49.0351123 9.60233996 49.0346575 7.69153023 49.03963852 C5.08733849 49.04557659 2.48387181 49.03311488 -0.12025452 49.01586914 C-1.26013282 49.02488421 -1.26013282 49.02488421 -2.42303896 49.0340814 C-5.56270477 48.99615546 -7.78929675 48.81453131 -10.5672226 47.29145908 C-15.05738341 42.51001091 -13.43579596 33.09482761 -13.47926331 26.86842346 C-13.49583207 25.12837864 -13.52313454 23.38840214 -13.56129456 21.6486969 C-13.61613446 19.13369122 -13.63794425 16.62027501 -13.65260315 14.10475159 C-13.67527252 13.33063934 -13.69794189 12.5565271 -13.72129822 11.75895691 C-13.70665591 8.004886 -13.37293119 5.95332904 -11.10077 2.92266941 C-7.37112269 0.04287743 -4.52559844 -0.07075737 0 0 Z " fill="#787680" transform="translate(285.12916564941406,151.37181091308594)"/>
<path d="M0 0 C10.56 0 21.12 0 32 0 C32 15.84 32 31.68 32 48 C34.64 48 37.28 48 40 48 C40 55.92 40 63.84 40 72 C41.81886719 71.96519531 43.63773438 71.93039063 45.51171875 71.89453125 C47.9036366 71.86639104 50.29556443 71.83909113 52.6875 71.8125 C53.88568359 71.78736328 55.08386719 71.76222656 56.31835938 71.73632812 C57.47529297 71.72666016 58.63222656 71.71699219 59.82421875 71.70703125 C60.88729248 71.6913208 61.95036621 71.67561035 63.0456543 71.65942383 C66.42477331 72.04896775 68.27990964 72.99204546 71 75 C72.13335166 77.26670332 72.12343812 78.48388875 72.12025452 80.99893188 C72.12231651 82.25255775 72.12231651 82.25255775 72.12442017 83.5315094 C72.11902725 84.90930824 72.11902725 84.90930824 72.11352539 86.31494141 C72.11367142 87.28083694 72.11381744 88.24673248 72.1139679 89.24189758 C72.11326937 92.44514181 72.10547978 95.64832839 72.09765625 98.8515625 C72.09579186 101.06830819 72.09436805 103.28505429 72.09336853 105.50180054 C72.08954504 111.34453463 72.07971617 117.18724397 72.06866455 123.02996826 C72.05844682 128.98872544 72.05387013 134.9474866 72.04882812 140.90625 C72.03809377 152.60417756 72.02101935 164.30208672 72 176 C66.72 176 61.44 176 56 176 C56 146.96 56 117.92 56 88 C50.72 88 45.44 88 40 88 C40 90.64 40 93.28 40 96 C24.16 96 8.32 96 -8 96 C-8 80.16 -8 64.32 -8 48 C-5.36 48 -2.72 48 0 48 C0 32.16 0 16.32 0 0 Z " fill="#1E81CE" transform="translate(80,72)"/>
<path d="M0 0 C10.56 0 21.12 0 32 0 C32 10.56 32 21.12 32 32 C42.56 32 53.12 32 64 32 C64 42.56 64 53.12 64 64 C53.44 64 42.88 64 32 64 C32 74.56 32 85.12 32 96 C21.44 96 10.88 96 0 96 C0 85.44 0 74.88 0 64 C-10.56 64 -21.12 64 -32 64 C-32 53.44 -32 42.88 -32 32 C-21.44 32 -10.88 32 0 32 C0 21.44 0 10.88 0 0 Z " fill="#FF5023" transform="translate(360,312)"/>
<path d="M0 0 C15.84 0 31.68 0 48 0 C48 26.07 48 52.14 48 79 C40.125 72.25 40.125 72.25 36.81640625 68.9140625 C36.11708984 68.21152344 35.41777344 67.50898437 34.69726562 66.78515625 C33.99279297 66.07230469 33.28832031 65.35945313 32.5625 64.625 C31.83095703 63.88894531 31.09941406 63.15289062 30.34570312 62.39453125 C28.56147277 60.59863926 26.77963876 58.80044015 25 57 C21.333884 58.53660728 19.03646629 60.74589914 16.26953125 63.5703125 C15.38458984 64.46621094 14.49964844 65.36210938 13.58789062 66.28515625 C12.67201172 67.22230469 11.75613281 68.15945312 10.8125 69.125 C8.98883299 70.98493222 7.16117431 72.8407461 5.33203125 74.6953125 C4.12123901 75.9330542 4.12123901 75.9330542 2.88598633 77.19580078 C1 79 1 79 0 79 C0 52.93 0 26.86 0 0 Z " fill="#FF5023" transform="translate(296,24)"/>
<path d="M0 0 C15.84 0 31.68 0 48 0 C48 10.06462893 48 10.06462893 44.75390625 15.28125 C44.07015472 16.44728609 43.39072203 17.61586287 42.71508789 18.78662109 C42.18505661 19.6938089 42.18505661 19.6938089 41.64431763 20.61932373 C31.87506308 37.60259776 31.03644839 52.75336153 32 72 C26.72 72 21.44 72 16 72 C16.10183594 69.96585937 16.20367187 67.93171875 16.30859375 65.8359375 C16.8678103 47.76214144 14.46158591 34.49317817 5.28491211 18.78662109 C4.77202637 17.89787796 4.77202637 17.89787796 4.2487793 16.99118042 C3.3130334 15.39540558 2.33843048 13.82259362 1.36108398 12.25195312 C0 9 0 9 0 0 Z " fill="#1F81CE" transform="translate(72,368)"/>
<path d="M0 0 C4.22955053 -0.08093399 8.45755211 -0.1404757 12.6875 -0.1875 C13.88568359 -0.21263672 15.08386719 -0.23777344 16.31835938 -0.26367188 C17.47529297 -0.27333984 18.63222656 -0.28300781 19.82421875 -0.29296875 C20.88729248 -0.3086792 21.95036621 -0.32438965 23.0456543 -0.34057617 C26.42477331 0.04896775 28.27990964 0.99204546 31 3 C32.13335166 5.26670332 32.12343812 6.48388875 32.12025452 8.99893188 C32.12162918 9.83468246 32.12300385 10.67043304 32.12442017 11.5315094 C32.11902725 12.90930824 32.11902725 12.90930824 32.11352539 14.31494141 C32.11367142 15.28083694 32.11381744 16.24673248 32.1139679 17.24189758 C32.11326937 20.44514181 32.10547978 23.64832839 32.09765625 26.8515625 C32.09579186 29.06830819 32.09436805 31.28505429 32.09336853 33.50180054 C32.08954504 39.34453463 32.07971617 45.18724397 32.06866455 51.02996826 C32.05844682 56.98872544 32.05387013 62.9474866 32.04882812 68.90625 C32.03809377 80.60417756 32.02101935 92.30208672 32 104 C26.72 104 21.44 104 16 104 C16 74.96 16 45.92 16 16 C10.72 16 5.44 16 0 16 C0 10.72 0 5.44 0 0 Z " fill="#1A6FB0" transform="translate(120,144)"/>
<path d="M0 0 C31.68 0 63.36 0 96 0 C96 5.28 96 10.56 96 16 C64.32 16 32.64 16 0 16 C0 10.72 0 5.44 0 0 Z " fill="#ACABB1" transform="translate(160,96)"/>
<path d="M0 0 C10.56 0 21.12 0 32 0 C32 15.84 32 31.68 32 48 C21.44 48 10.88 48 0 48 C0 32.16 0 16.32 0 0 Z " fill="#5AAAE7" transform="translate(80,72)"/>
<path d="M0 0 C21.12 0 42.24 0 64 0 C64 5.28 64 10.56 64 16 C42.88 16 21.76 16 0 16 C0 10.72 0 5.44 0 0 Z " fill="#ACABB1" transform="translate(160,384)"/>
<path d="M0 0 C21.12 0 42.24 0 64 0 C64 5.28 64 10.56 64 16 C42.88 16 21.76 16 0 16 C0 10.72 0 5.44 0 0 Z " fill="#ACABB1" transform="translate(160,352)"/>
<path d="M0 0 C21.12 0 42.24 0 64 0 C64 5.28 64 10.56 64 16 C42.88 16 21.76 16 0 16 C0 10.72 0 5.44 0 0 Z " fill="#ACABB1" transform="translate(160,320)"/>
<path d="M0 0 C21.12 0 42.24 0 64 0 C64 5.28 64 10.56 64 16 C42.88 16 21.76 16 0 16 C0 10.72 0 5.44 0 0 Z " fill="#ACABB1" transform="translate(160,288)"/>
<path d="M0 0 C21.12 0 42.24 0 64 0 C64 5.28 64 10.56 64 16 C42.88 16 21.76 16 0 16 C0 10.72 0 5.44 0 0 Z " fill="#ACABB1" transform="translate(192,64)"/>
<path d="M0 0 C5.28 0 10.56 0 16 0 C16 10.56 16 21.12 16 32 C10.72 32 5.44 32 0 32 C0 21.44 0 10.88 0 0 Z " fill="#787680" transform="translate(88,408)"/>
<path d="M0 0 C5.28 0 10.56 0 16 0 C16 7.92 16 15.84 16 24 C10.72 24 5.44 24 0 24 C0 16.08 0 8.16 0 0 Z " fill="#57565C" transform="translate(432,152)"/>
<path d="M0 0 C5.28 0 10.56 0 16 0 C16 7.92 16 15.84 16 24 C10.72 24 5.44 24 0 24 C0 16.08 0 8.16 0 0 Z " fill="#57565C" transform="translate(400,152)"/>
<path d="M0 0 C5.28 0 10.56 0 16 0 C16 7.92 16 15.84 16 24 C10.72 24 5.44 24 0 24 C0 16.08 0 8.16 0 0 Z " fill="#57565C" transform="translate(368,152)"/>
<path d="M0 0 C5.28 0 10.56 0 16 0 C16 7.92 16 15.84 16 24 C10.72 24 5.44 24 0 24 C0 16.08 0 8.16 0 0 Z " fill="#57565C" transform="translate(336,152)"/>
<path d="M0 0 C5.28 0 10.56 0 16 0 C16 7.92 16 15.84 16 24 C10.72 24 5.44 24 0 24 C0 16.08 0 8.16 0 0 Z " fill="#57565C" transform="translate(304,152)"/>
<path d="M0 0 C5.28 0 10.56 0 16 0 C16 5.28 16 10.56 16 16 C10.72 16 5.44 16 0 16 C0 10.72 0 5.44 0 0 Z " fill="#898890" transform="translate(160,64)"/>
</svg>
